<?xml version="1.0" encoding="UTF-8" standalone="no"?>
<!-- Created with Inkscape (http://www.inkscape.org/) -->

<svg
   version="1.1"
   id="svg3932"
   width="880"
   height="880"
   viewBox="0 0 880 880"
   sodipodi:docname="red-lobster-publicdomainvectors.org.svg"
   inkscape:version="1.2 (dc2aedaf03, 2022-05-15)"
   xmlns:inkscape="http://www.inkscape.org/namespaces/inkscape"
   xmlns:sodipodi="http://sodipodi.sourceforge.net/DTD/sodipodi-0.dtd"
   xmlns="http://www.w3.org/2000/svg"
   xmlns:svg="http://www.w3.org/2000/svg">
  <defs
     id="defs3936">
    <clipPath
       clipPathUnits="userSpaceOnUse"
       id="clipPath3948">
      <path
         d="M 0,660 H 660 V 0 H 0 Z"
         id="path3946" />
    </clipPath>
  </defs>
  <sodipodi:namedview
     id="namedview3934"
     pagecolor="#ffffff"
     bordercolor="#000000"
     borderopacity="0.25"
     inkscape:showpageshadow="2"
     inkscape:pageopacity="0.0"
     inkscape:pagecheckerboard="0"
     inkscape:deskcolor="#d1d1d1"
     showgrid="false"
     inkscape:zoom="0.95113636"
     inkscape:cx="440.52569"
     inkscape:cy="440.52569"
     inkscape:window-width="1920"
     inkscape:window-height="1017"
     inkscape:window-x="-8"
     inkscape:window-y="-8"
     inkscape:window-maximized="1"
     inkscape:current-layer="g3940">
    <inkscape:page
       x="0"
       y="0"
       id="page3938"
       width="880"
       height="880" />
  </sodipodi:namedview>
  <g
     id="g3940"
     inkscape:groupmode="layer"
     inkscape:label="Page 1"
     transform="matrix(1.3333333,0,0,-1.3333333,0,880)">
    <g
       id="g3942">
      <g
         id="g3944"
         clip-path="url(#clipPath3948)">
        <g
           id="g3950"
           transform="translate(315.3682,138.8047)">
          <path
             d="m 0,0 2.304,-15.17 -52.624,-7.988 c -39.273,-5.961 -76.166,21.207 -82.129,60.48 l -2.303,15.168 52.623,7.99 C -42.855,66.443 -5.962,39.273 0,0"
             style="fill:#cc3300;fill-opacity:1;fill-rule:evenodd;stroke:none"
             id="path3952" />
        </g>
        <g
           id="g3954"
           transform="translate(88.4424,104.3555)">
          <path
             d="m 0,0 2.303,-15.17 52.624,7.988 c 39.272,5.963 66.44,42.858 60.479,82.131 L 113.102,90.117 60.479,82.129 C 21.207,76.168 -5.962,39.271 0,0"
             style="fill:#ad2b00;fill-opacity:1;fill-rule:evenodd;stroke:none"
             id="path3956" />
        </g>
        <g
           id="g3958"
           transform="translate(439.7207,490.0796)">
          <path
             d="m 0,0 c -3.888,-1.973 -8.642,-0.42 -10.614,3.468 -1.973,3.889 -0.421,8.641 3.468,10.614 l 47.349,24.024 c 3.487,1.769 5.934,4.804 7.066,8.268 1.132,3.466 0.95,7.358 -0.821,10.845 l -0.658,1.298 c -1.768,3.487 -4.802,5.933 -8.268,7.064 -3.463,1.133 -7.357,0.951 -10.844,-0.819 L -220.884,-60.849 c -3.889,-1.973 -8.642,-0.421 -10.616,3.469 -1.973,3.889 -0.421,8.641 3.47,10.614 L 19.533,78.845 c 7.373,3.742 15.59,4.132 22.895,1.745 7.303,-2.386 13.705,-7.555 17.446,-14.928 l 0.658,-1.297 C 64.273,56.991 64.663,48.774 62.276,41.47 59.891,34.166 54.722,27.765 47.349,24.024 Z"
             style="fill:#f03c00;fill-opacity:1;fill-rule:evenodd;stroke:none"
             id="path3960" />
        </g>
        <g
           id="g3962"
           transform="translate(361.9863,482.3467)">
          <path
             d="M 0,0 C 22.721,12.064 33.115,37.271 23.227,56.764 L -19.099,35.291 -0.947,-0.48 Z"
             style="fill:#ad2b00;fill-opacity:1;fill-rule:evenodd;stroke:none"
             id="path3964" />
        </g>
        <g
           id="g3966"
           transform="translate(303.791,418.5947)">
          <path
             d="m 0,0 -16.214,31.955 c -2.835,5.587 -3.121,11.845 -1.297,17.423 1.825,5.58 5.749,10.461 11.336,13.296 l 15.219,7.722 -16.673,32.859 -15.217,-7.721 c -14.66,-7.437 -24.935,-20.177 -29.686,-34.711 -4.748,-14.532 -3.98,-30.884 3.46,-45.542 L -32.86,-16.672 C -21.121,-39.809 11.737,-23.134 0,0"
             style="fill:#701c00;fill-opacity:1;fill-rule:evenodd;stroke:none"
             id="path3968" />
        </g>
        <g
           id="g3970"
           transform="translate(392.2471,549.9434)">
          <path
             d="m 0,0 c -12.181,24.009 -45.077,31.791 -73.477,17.381 -28.399,-14.409 -41.543,-45.551 -29.362,-69.56 12.182,-24.009 45.078,-31.791 73.478,-17.382 l -0.008,0.013 -20.632,40.663 -1.418,2.796 z"
             style="fill:#8c2300;fill-opacity:1;fill-rule:evenodd;stroke:none"
             id="path3972" />
        </g>
        <g
           id="g3974"
           transform="translate(150.4453,237.1973)">
          <path
             d="m 0,0 10.753,-60.367 c 0.895,-5.028 3.604,-9.012 7.951,-11.697 4.347,-2.684 9.122,-3.319 14.02,-1.868 l 20.608,6.114 c 18.897,5.603 29.984,25.15 25.096,44.246 l -3.121,12.187 z"
             style="fill:#701c00;fill-opacity:1;fill-rule:evenodd;stroke:none"
             id="path3976" />
        </g>
        <g
           id="g3978"
           transform="translate(183.1689,163.2656)">
          <path
             d="m 0,0 20.608,6.111 c 18.897,5.606 29.985,25.153 25.096,44.248 L 42.583,62.547 -32.724,73.934 -18.008,56.77 c 7.374,-8.6 29.241,-16.739 40.612,-16.7 11.416,0.045 12.81,-11.982 0.91,-21.42 z"
             style="fill:#4f1400;fill-opacity:1;fill-rule:evenodd;stroke:none"
             id="path3980" />
        </g>
        <g
           id="g3982"
           transform="translate(173.0352,330.3647)">
          <path
             d="m 0,0 -24.958,-78.068 c -2.079,-6.504 -1.364,-12.9 2.1,-18.787 3.462,-5.883 8.71,-9.615 15.406,-10.953 l 28.174,-5.637 c 25.835,-5.17 51.135,11.018 57.273,36.641 l 3.917,16.353 z"
             style="fill:#8c2300;fill-opacity:1;fill-rule:evenodd;stroke:none"
             id="path3984" />
        </g>
        <g
           id="g3986"
           transform="translate(165.583,222.5566)">
          <path
             d="m 0,0 28.174,-5.637 c 25.835,-5.17 51.136,11.018 57.273,36.641 l 3.917,16.353 -81.912,60.451 6.685,-29.47 C 17.488,63.57 38.257,40.305 51.724,33.258 65.245,26.184 59.387,11.098 39.43,7.369 Z"
             style="fill:#701c00;fill-opacity:1;fill-rule:evenodd;stroke:none"
             id="path3988" />
        </g>
        <g
           id="g3990"
           transform="translate(243.5889,408.7822)">
          <path
             d="m 0,0 -66.527,-67.937 c -5.542,-5.66 -8.134,-12.666 -7.606,-20.57 0.524,-7.904 4.023,-14.506 10.264,-19.381 l 26.277,-20.515 c 24.091,-18.811 58.752,-15.203 78.455,8.162 l 12.578,14.916 z"
             style="fill:#ad2b00;fill-opacity:1;fill-rule:evenodd;stroke:none"
             id="path3992" />
        </g>
        <g
           id="g3994"
           transform="translate(179.7197,300.8945)">
          <path
             d="m 0,0 26.277,-20.516 c 24.091,-18.81 58.66,-15.125 78.455,8.162 l 23.96,28.19 L 63.869,107.888 91.12,31.626 C 94.998,20.777 93.558,9.738 87.031,0.246 80.505,-9.246 70.712,-14.541 59.196,-14.805 c -4.764,-0.109 -9.633,0.516 -14.479,1.913 z"
             style="fill:#8c2300;fill-opacity:1;fill-rule:evenodd;stroke:none"
             id="path3996" />
        </g>
        <g
           id="g3998"
           transform="translate(441.0938,515.7085)">
          <path
             d="m 0,0 0.375,-0.739 c 34.504,-68.001 7.182,-151.605 -60.82,-186.108 l -37.313,-18.932 c -21.721,-11.021 -48.427,-2.295 -59.446,19.426 l -43.01,84.767 z"
             style="fill:#cc3300;fill-opacity:1;fill-rule:evenodd;stroke:none"
             id="path4000" />
        </g>
        <g
           id="g4002"
           transform="translate(441.0938,515.7085)">
          <path
             d="m 0,0 0.375,-0.739 c 34.504,-68.001 7.182,-151.605 -60.82,-186.108 l -37.313,-18.932 c -21.721,-11.021 -48.427,-2.295 -59.446,19.426 l -43.01,84.767 37.911,-56.443 c 14.166,-21.094 41.487,-28.213 64.147,-16.716 l 40.019,20.305 C -9.084,-129.551 18.404,-79.162 0,0"
             style="fill:#ad2b00;fill-opacity:1;fill-rule:evenodd;stroke:none"
             id="path4004" />
        </g>
        <g
           id="g4006"
           transform="translate(372.4697,452.728)">
          <path
             d="m 0,0 v 0 c 3.87,-7.629 0.796,-17.037 -6.831,-20.908 l -73.394,-37.238 c -7.629,-3.871 -17.038,-0.795 -20.908,6.833 v 0 c -3.87,7.629 -0.796,17.037 6.833,20.907 L -20.908,6.833 C -13.278,10.703 -3.872,7.629 0,0"
             style="fill:#f03c00;fill-opacity:1;fill-rule:evenodd;stroke:none"
             id="path4008" />
        </g>
        <g
           id="g4010"
           transform="translate(417.665,475.084)">
          <path
             d="m 0,0 c 5.324,-10.495 1.134,-23.32 -9.361,-28.645 -10.496,-5.324 -23.32,-1.133 -28.646,9.361 -5.324,10.495 -1.134,23.32 9.361,28.645 C -18.151,14.686 -5.326,10.496 0,0"
             style="fill:#ad2b00;fill-opacity:1;fill-rule:evenodd;stroke:none"
             id="path4012" />
        </g>
        <g
           id="g4014"
           transform="translate(409.0947,470.7358)">
          <path
             d="m 0,0 c 2.923,-5.762 0.622,-12.803 -5.14,-15.727 -5.761,-2.923 -12.802,-0.622 -15.726,5.14 -2.923,5.761 -0.622,12.802 5.139,15.726 C -9.965,8.063 -2.924,5.762 0,0"
             style="fill:#262626;fill-opacity:1;fill-rule:evenodd;stroke:none"
             id="path4016" />
        </g>
        <g
           id="g4018"
           transform="translate(406.5029,466.6104)">
          <path
             d="m 0,0 c 1.253,-2.469 0.267,-5.487 -2.201,-6.739 -2.47,-1.253 -5.487,-0.266 -6.739,2.201 -1.253,2.47 -0.267,5.487 2.202,6.74 C -4.271,3.454 -1.253,2.468 0,0"
             style="fill:#ebebeb;fill-opacity:1;fill-rule:evenodd;stroke:none"
             id="path4020" />
        </g>
        <g
           id="g4022"
           transform="translate(240.3662,381.8521)">
          <path
             d="m 0,0 v 0 c 4.018,-3.921 4.095,-10.413 0.177,-14.43 l -37.714,-38.641 c -3.921,-4.015 -10.413,-4.094 -14.43,-0.174 -4.016,3.921 -4.094,10.413 -0.174,14.429 l 37.713,38.641 C -10.509,3.841 -4.015,3.92 0,0"
             style="fill:#cc3300;fill-opacity:1;fill-rule:evenodd;stroke:none"
             id="path4024" />
        </g>
        <g
           id="g4026"
           transform="translate(175.4385,293.7656)">
          <path
             d="M 0,0 H 0.002 C 3.974,-1.234 6.211,-5.494 4.977,-9.465 L -6.907,-47.68 c -1.236,-3.972 -5.495,-6.211 -9.467,-4.976 h -0.001 c -3.973,1.236 -6.211,5.496 -4.976,9.468 L -9.467,-4.975 C -8.231,-1.002 -3.974,1.236 0,0"
             style="fill:#ad2b00;fill-opacity:1;fill-rule:evenodd;stroke:none"
             id="path4028" />
        </g>
        <g
           id="g4030"
           transform="translate(165.9365,210.6953)">
          <path
             d="m 0,0 0.001,0.002 c 2.815,0.486 5.515,-1.42 6.001,-4.234 l 4.673,-27.079 c 0.486,-2.814 -1.418,-5.513 -4.233,-6 H 6.441 c -2.815,-0.486 -5.514,1.418 -6,4.233 l -4.673,27.08 C -4.719,-3.184 -2.814,-0.486 0,0"
             style="fill:#8c2300;fill-opacity:1;fill-rule:evenodd;stroke:none"
             id="path4032" />
        </g>
        <g
           id="g4034"
           transform="translate(350.3525,344.2515)">
          <path
             d="m 0,0 c 6.525,-12.861 1.389,-28.578 -11.473,-35.103 -12.86,-6.527 -28.576,-1.391 -35.103,11.471 -6.524,12.861 -1.389,28.577 11.473,35.103 C -22.242,17.997 -6.527,12.861 0,0"
             style="fill:#ad2b00;fill-opacity:1;fill-rule:evenodd;stroke:none"
             id="path4036" />
        </g>
        <g
           id="g4038"
           transform="translate(429.8789,348.5376)">
          <path
             d="M 0,0 C 23.152,11.212 49.635,4.717 59.525,-14.776 L 17.203,-36.251 -0.946,-0.479 Z"
             style="fill:#cc3300;fill-opacity:1;fill-rule:evenodd;stroke:none"
             id="path4040" />
        </g>
        <g
           id="g4042"
           transform="translate(344.0635,339.2202)">
          <path
             d="m 0,0 16.214,-31.955 c 2.835,-5.585 7.717,-9.511 13.297,-11.335 5.578,-1.823 11.836,-1.538 17.423,1.296 l 15.217,7.723 16.673,-32.861 -15.219,-7.721 c -14.656,-7.437 -31.006,-8.207 -45.54,-3.459 -14.533,4.75 -27.274,15.027 -34.712,29.686 l -16.211,31.955 C -44.6,6.466 -11.737,23.135 0,0"
             style="fill:#8c2300;fill-opacity:1;fill-rule:evenodd;stroke:none"
             id="path4044" />
        </g>
        <g
           id="g4046"
           transform="translate(502.3008,333.0425)">
          <path
             d="m 0,0 c 12.183,-24.009 -0.964,-55.152 -29.362,-69.562 -28.4,-14.408 -61.294,-6.627 -73.478,17.383 -12.18,24.008 0.965,55.151 29.364,69.559 l 0.006,-0.012 20.632,-40.664 1.418,-2.793 z"
             style="fill:#ad2b00;fill-opacity:1;fill-rule:evenodd;stroke:none"
             id="path4048" />
        </g>
        <g
           id="g4050"
           transform="translate(442.6582,484.2891)">
          <path
             d="m 0,0 c -3.888,-1.973 -5.441,-6.725 -3.469,-10.614 1.973,-3.89 6.727,-5.443 10.614,-3.469 L 54.494,9.941 c 3.488,1.769 7.381,1.951 10.846,0.82 3.464,-1.133 6.498,-3.579 8.267,-7.066 l 0.658,-1.297 c 1.769,-3.487 1.953,-7.381 0.821,-10.844 -1.134,-3.465 -3.58,-6.499 -7.067,-8.268 l -247.562,-125.612 c -3.891,-1.971 -5.444,-6.725 -3.47,-10.613 1.974,-3.889 6.727,-5.442 10.615,-3.469 L 75.164,-30.796 c 7.375,3.74 12.542,10.141 14.928,17.445 2.388,7.304 1.997,15.521 -1.744,22.894 L 87.69,10.841 C 83.948,18.214 77.549,23.382 70.244,25.77 62.94,28.156 54.723,27.765 47.349,24.024 Z"
             style="fill:#f03c00;fill-opacity:1;fill-rule:evenodd;stroke:none"
             id="path4052" />
        </g>
      </g>
    </g>
  </g>
</svg>
